<mxfile host="app.diagrams.net" modified="2023-10-16T02:04:48.652Z" agent="Mozilla/5.0 (Windows NT 10.0; Win64; x64) AppleWebKit/537.36 (KHTML, like Gecko) Chrome/106.0.0.0 Safari/537.36 Edg/106.0.1370.47" etag="vY0pE07kt3KJ8FcVUhUb" version="22.0.4" type="github">
  <diagram id="C5RBs43oDa-KdzZeNtuy" name="Page-1">
    <mxGraphModel dx="501" dy="439" grid="1" gridSize="10" guides="1" tooltips="1" connect="1" arrows="1" fold="1" page="1" pageScale="1" pageWidth="827" pageHeight="1169" math="0" shadow="0">
      <root>
        <mxCell id="WIyWlLk6GJQsqaUBKTNV-0" />
        <mxCell id="WIyWlLk6GJQsqaUBKTNV-1" parent="WIyWlLk6GJQsqaUBKTNV-0" />
        <mxCell id="nRiVwteCVSCjeDl6dpDL-6" value="" style="edgeStyle=orthogonalEdgeStyle;rounded=0;orthogonalLoop=1;jettySize=auto;html=1;" edge="1" parent="WIyWlLk6GJQsqaUBKTNV-1" source="nRiVwteCVSCjeDl6dpDL-0" target="nRiVwteCVSCjeDl6dpDL-1">
          <mxGeometry relative="1" as="geometry" />
        </mxCell>
        <mxCell id="nRiVwteCVSCjeDl6dpDL-0" value="MULAI" style="rounded=1;whiteSpace=wrap;html=1;" vertex="1" parent="WIyWlLk6GJQsqaUBKTNV-1">
          <mxGeometry x="460" y="420" width="120" height="60" as="geometry" />
        </mxCell>
        <mxCell id="nRiVwteCVSCjeDl6dpDL-7" value="" style="edgeStyle=orthogonalEdgeStyle;rounded=0;orthogonalLoop=1;jettySize=auto;html=1;" edge="1" parent="WIyWlLk6GJQsqaUBKTNV-1" source="nRiVwteCVSCjeDl6dpDL-1" target="nRiVwteCVSCjeDl6dpDL-2">
          <mxGeometry relative="1" as="geometry" />
        </mxCell>
        <mxCell id="nRiVwteCVSCjeDl6dpDL-1" value="MASUKAN ALAS" style="shape=parallelogram;perimeter=parallelogramPerimeter;whiteSpace=wrap;html=1;fixedSize=1;" vertex="1" parent="WIyWlLk6GJQsqaUBKTNV-1">
          <mxGeometry x="460" y="540" width="120" height="60" as="geometry" />
        </mxCell>
        <mxCell id="nRiVwteCVSCjeDl6dpDL-8" value="" style="edgeStyle=orthogonalEdgeStyle;rounded=0;orthogonalLoop=1;jettySize=auto;html=1;" edge="1" parent="WIyWlLk6GJQsqaUBKTNV-1" source="nRiVwteCVSCjeDl6dpDL-2" target="nRiVwteCVSCjeDl6dpDL-3">
          <mxGeometry relative="1" as="geometry" />
        </mxCell>
        <mxCell id="nRiVwteCVSCjeDl6dpDL-2" value="MASUKAN TINGGI" style="shape=parallelogram;perimeter=parallelogramPerimeter;whiteSpace=wrap;html=1;fixedSize=1;" vertex="1" parent="WIyWlLk6GJQsqaUBKTNV-1">
          <mxGeometry x="430" y="660" width="180" height="60" as="geometry" />
        </mxCell>
        <mxCell id="nRiVwteCVSCjeDl6dpDL-9" value="" style="edgeStyle=orthogonalEdgeStyle;rounded=0;orthogonalLoop=1;jettySize=auto;html=1;" edge="1" parent="WIyWlLk6GJQsqaUBKTNV-1" source="nRiVwteCVSCjeDl6dpDL-3" target="nRiVwteCVSCjeDl6dpDL-4">
          <mxGeometry relative="1" as="geometry" />
        </mxCell>
        <mxCell id="nRiVwteCVSCjeDl6dpDL-3" value="LUAS=1/2*(ALAS*TINGGI)" style="rounded=0;whiteSpace=wrap;html=1;" vertex="1" parent="WIyWlLk6GJQsqaUBKTNV-1">
          <mxGeometry x="435" y="780" width="170" height="60" as="geometry" />
        </mxCell>
        <mxCell id="nRiVwteCVSCjeDl6dpDL-10" value="" style="edgeStyle=orthogonalEdgeStyle;rounded=0;orthogonalLoop=1;jettySize=auto;html=1;" edge="1" parent="WIyWlLk6GJQsqaUBKTNV-1" source="nRiVwteCVSCjeDl6dpDL-4" target="nRiVwteCVSCjeDl6dpDL-5">
          <mxGeometry relative="1" as="geometry" />
        </mxCell>
        <mxCell id="nRiVwteCVSCjeDl6dpDL-4" value="TAMPIL LUAS SEGITIGA" style="shape=parallelogram;perimeter=parallelogramPerimeter;whiteSpace=wrap;html=1;fixedSize=1;" vertex="1" parent="WIyWlLk6GJQsqaUBKTNV-1">
          <mxGeometry x="420" y="900" width="200" height="60" as="geometry" />
        </mxCell>
        <mxCell id="nRiVwteCVSCjeDl6dpDL-5" value="SELESAI" style="rounded=1;whiteSpace=wrap;html=1;" vertex="1" parent="WIyWlLk6GJQsqaUBKTNV-1">
          <mxGeometry x="460" y="1020" width="120" height="60" as="geometry" />
        </mxCell>
      </root>
    </mxGraphModel>
  </diagram>
</mxfile>
